# Blender v3.0.1 OBJ File: ''
# www.blender.org
mtllib middle.mtl
o 16834_hand_v1_NEW.003
v -0.803078 1.780243 -0.185420
v 0.537406 1.110245 -0.271160
v -0.899992 0.481591 -0.508483
v 0.526801 2.363495 0.238527
v 0.993440 1.962071 0.827108
v -0.444057 2.436072 0.219344
v -0.581396 1.766340 1.297790
v 0.294505 -1.971166 -1.789546
v 0.731455 0.928719 1.203672
v -0.866697 -0.237562 0.327895
v -0.974538 -2.122479 -1.408223
v 0.060636 -0.509180 0.860605
v 0.054293 -2.306119 0.334670
v -0.699677 -2.266099 0.119010
v 0.790647 -2.155092 -1.333652
v 0.888050 -2.272290 -0.303522
v 0.929446 -2.243904 -0.408313
v 0.179675 -2.308220 0.319405
v -0.489377 -2.283273 0.246658
vn -0.0014 -0.9279 -0.3728
vn -0.0146 -0.9957 -0.0910
vn -0.0166 -0.9955 -0.0931
vn -0.0810 -0.9535 -0.2903
vn -0.0275 -0.9957 -0.0887
vn -0.6876 0.4086 -0.6002
vn 0.5216 0.3083 -0.7955
vn -0.7569 0.2753 -0.5927
vn 0.4256 0.8551 -0.2962
vn 0.7808 0.5250 0.3388
vn -0.3617 0.9133 -0.1874
vn -0.5106 0.3600 0.7808
vn 0.2541 0.3767 -0.8908
vn 0.5296 -0.0847 0.8440
vn 0.8357 -0.2000 0.5115
vn 0.9957 -0.0399 0.0841
vn -0.8813 -0.1032 0.4612
vn -0.8168 0.1842 -0.5467
vn -0.1951 -0.2551 0.9470
vn -0.8163 -0.1253 0.5639
vn 0.8651 0.1990 -0.4604
vn 0.3832 -0.3036 0.8723
vn -0.3869 -0.1922 0.9019
vn -0.0253 -0.2807 0.9595
usemtl _16834_hand_v1default
s off
f 11//1 8//1 15//1
f 14//2 11//2 15//2
f 14//3 15//3 17//3
f 14//4 17//4 16//4
f 16//5 18//5 13//5
f 19//5 16//5 13//5
f 19//5 14//5 16//5
s 1
f 1//6 2//7 3//8
f 2//7 1//6 4//9
f 5//10 6//11 7//12
f 8//13 3//8 2//7
f 5//10 8//13 2//7
f 9//14 16//15 17//16 5//10
f 3//8 10//17 1//6
f 10//17 7//12 1//6
f 9//14 5//10 7//12
f 11//18 10//17 3//8
f 12//19 7//12 10//17
f 10//17 11//18 14//20
f 5//10 2//7 4//9
f 6//11 4//9 1//6
f 5//10 4//9 6//11
f 3//8 8//13 11//18
f 6//11 1//6 7//12
f 12//19 9//14 7//12
f 15//21 8//13 5//10
f 18//22 16//15 9//14
f 19//23 13//24 12//19
f 13//24 18//22 9//14 12//19
f 17//16 15//21 5//10
f 14//20 19//23 12//19 10//17
