# Blender v3.0.1 OBJ File: ''
# www.blender.org
mtllib pinky.mtl
o 16834_hand_v1_NEW.001
v -0.461100 0.319831 0.726635
v 0.613613 1.606647 0.479726
v -0.641976 1.741512 0.071536
v -0.854911 0.414805 0.104198
v -0.099697 0.723572 -0.655359
v 0.396134 -1.188942 0.664848
v 0.133687 1.752525 -0.383461
v -0.513309 -1.345776 0.555165
v -0.621099 -1.345496 -0.583190
v 0.885727 -1.192478 -0.336412
v 0.396181 -1.254224 0.667232
v -0.657978 -1.349124 -0.543309
v 0.914447 -1.191421 -0.319581
v -0.607666 -1.351855 0.404500
v 0.428653 -1.153200 -0.970463
v 0.580304 -1.229150 0.335743
v 0.298390 -1.264095 0.647247
v 0.932556 -1.194315 -0.285718
vn -0.0063 -0.9983 -0.0573
vn 0.1242 -0.9808 -0.1502
vn 0.1528 -0.9854 -0.0750
vn 0.1023 -0.9947 -0.0078
vn 0.0133 -0.9987 -0.0485
vn 0.1040 -0.9944 -0.0175
vn 0.1028 -0.9944 -0.0243
vn 0.0897 -0.9959 -0.0076
vn 0.1016 -0.9946 -0.0196
vn -0.4224 0.0919 0.9018
vn 0.6319 0.6115 0.4763
vn -0.6958 0.7157 0.0604
vn -0.9936 0.1020 -0.0477
vn -0.1437 0.1890 -0.9714
vn -0.6021 0.1242 -0.7887
vn -0.9112 0.0485 -0.4092
vn -0.9410 -0.0756 0.3298
vn -0.5643 -0.0670 0.8228
vn 0.4569 -0.0250 0.8892
vn 0.8705 -0.0322 0.4911
vn 0.9919 0.1225 -0.0348
vn 0.2363 0.7314 -0.6397
vn 0.7372 0.1814 -0.6508
vn 0.6155 0.1892 -0.7651
vn -0.1203 -0.0753 0.9899
vn 0.3752 0.0341 0.9263
vn 0.3192 0.2436 -0.9158
usemtl _16834_hand_v1default
s off
f 10//1 16//1 15//1
f 10//2 13//2 18//2
f 16//3 9//3 15//3
f 9//4 16//4 14//4
f 16//5 10//5 18//5
f 11//6 17//6 16//6
f 8//7 14//7 17//7
f 12//8 9//8 14//8
f 17//9 14//9 16//9
s 1
f 1//10 2//11 3//12
f 4//13 3//12 5//14
f 4//13 5//14 9//15 12//16
f 4//13 1//10 3//12
f 1//10 4//13 14//17 8//18
f 6//19 16//20 18//21 2//11
f 7//22 13//23 10//24 5//14
f 3//12 7//22 5//14
f 2//11 18//21 13//23 7//22
f 2//11 7//22 3//12
f 6//19 2//11 1//10
f 12//16 14//17 4//13
f 17//25 11//26 6//19
f 8//18 17//25 6//19 1//10
f 11//26 16//20 6//19
f 10//24 15//27 5//14
f 15//27 9//15 5//14
